<svg width="136" height="44" viewBox="0 0 136 44" fill="none" xmlns="http://www.w3.org/2000/svg">
<path d="M63 30H49.8V9.98999H54.96V25.5H63V30Z" fill="#0D0F52"/>
<path d="M72.0724 30.36C69.7924 30.36 67.9024 29.67 66.4024 28.29C64.9024 26.89 64.1524 25.04 64.1524 22.74C64.1524 20.6 64.8724 18.8 66.3124 17.34C67.7724 15.88 69.6224 15.15 71.8624 15.15C74.0424 15.15 75.8224 15.89 77.2024 17.37C78.5824 18.83 79.2724 20.78 79.2724 23.22V24.21H68.9524C69.0924 24.93 69.4824 25.54 70.1224 26.04C70.7624 26.54 71.5824 26.79 72.5824 26.79C73.1424 26.79 73.7824 26.68 74.5024 26.46C75.2424 26.22 75.8024 25.92 76.1824 25.56L78.1324 28.44C77.4324 29.06 76.5324 29.54 75.4324 29.88C74.3524 30.2 73.2324 30.36 72.0724 30.36ZM74.8624 21.21C74.7824 20.57 74.5024 20 74.0224 19.5C73.5424 18.98 72.8224 18.72 71.8624 18.72C70.9624 18.72 70.2724 18.97 69.7924 19.47C69.3124 19.97 69.0124 20.55 68.8924 21.21H74.8624Z" fill="#0D0F52"/>
<path d="M95.678 30H91.058V21.63C91.058 20.03 90.268 19.23 88.688 19.23C87.568 19.23 86.628 19.7 85.868 20.64V30H81.248V15.51H85.868V17.28C87.088 15.86 88.758 15.15 90.878 15.15C92.478 15.15 93.678 15.57 94.478 16.41C95.278 17.23 95.678 18.34 95.678 19.74V30Z" fill="#0D0F52"/>
<path d="M113.071 30H108.481V28.32C107.301 29.68 105.871 30.36 104.191 30.36C102.331 30.36 100.791 29.69 99.5712 28.35C98.3712 26.99 97.7712 25.12 97.7712 22.74C97.7712 20.42 98.3712 18.58 99.5712 17.22C100.791 15.84 102.331 15.15 104.191 15.15C105.931 15.15 107.361 15.84 108.481 17.22V9.98999H113.071V30ZM105.691 26.28C106.191 26.28 106.701 26.16 107.221 25.92C107.761 25.66 108.181 25.34 108.481 24.96V20.52C108.181 20.14 107.761 19.83 107.221 19.59C106.701 19.35 106.191 19.23 105.691 19.23C104.751 19.23 103.981 19.55 103.381 20.19C102.801 20.83 102.511 21.68 102.511 22.74C102.511 23.8 102.811 24.66 103.411 25.32C104.011 25.96 104.771 26.28 105.691 26.28Z" fill="#0D0F52"/>
<path d="M123.086 30.36C120.706 30.36 118.796 29.62 117.356 28.14C115.916 26.66 115.196 24.86 115.196 22.74C115.196 20.62 115.916 18.83 117.356 17.37C118.796 15.89 120.706 15.15 123.086 15.15C125.486 15.15 127.406 15.89 128.846 17.37C130.286 18.83 131.006 20.62 131.006 22.74C131.006 24.86 130.286 26.66 128.846 28.14C127.406 29.62 125.486 30.36 123.086 30.36ZM120.776 25.29C121.336 25.95 122.106 26.28 123.086 26.28C124.066 26.28 124.836 25.95 125.396 25.29C125.976 24.61 126.266 23.76 126.266 22.74C126.266 21.74 125.976 20.91 125.396 20.25C124.836 19.57 124.066 19.23 123.086 19.23C122.106 19.23 121.336 19.57 120.776 20.25C120.236 20.91 119.966 21.74 119.966 22.74C119.966 23.76 120.236 24.61 120.776 25.29Z" fill="#0D0F52"/>
<path fill-rule="evenodd" clip-rule="evenodd" d="M29.6034 1.87909C32.1088 4.38452 32.1087 8.4466 29.6033 10.952L27.0728 13.4825C26.2917 14.2635 26.2917 15.5299 27.0728 16.3109L32.6743 21.9125C35.1797 24.4179 35.1797 28.48 32.6743 30.9854C30.1689 33.4908 26.1068 33.4908 23.6014 30.9854L12.0492 19.4331C10.846 18.2299 10.1701 16.5981 10.1701 14.8966C10.1701 13.1951 10.846 11.5633 12.0492 10.3602L20.5305 1.87903C23.0359 -0.626368 27.098 -0.626338 29.6034 1.87909Z" fill="url(#paint0_radial_1_301)"/>
<path fill-rule="evenodd" clip-rule="evenodd" d="M1.87901 13.0145C4.38439 10.509 8.44643 10.509 10.9518 13.0144L22.5041 24.5667C23.7072 25.7699 24.3832 27.4017 24.3832 29.1033C24.3832 30.8048 23.7072 32.4367 22.504 33.6398L14.0228 42.121C11.5174 44.6264 7.45531 44.6263 4.94996 42.1208C2.44461 39.6153 2.44468 35.5532 4.95011 33.0478L7.48056 30.5174C8.26162 29.7364 8.26162 28.47 7.48057 27.689L1.87907 22.0875C-0.626334 19.582 -0.62636 15.5199 1.87901 13.0145Z" fill="#4BDFFF"/>
<path fill-rule="evenodd" clip-rule="evenodd" d="M23.9822 31.3368C23.8519 31.2257 23.7249 31.1085 23.6017 30.9853L12.0494 19.433C10.8463 18.2298 10.1703 16.598 10.1703 14.8965C10.1704 14.1267 10.3087 13.3711 10.5717 12.663C10.7021 12.7741 10.829 12.8912 10.9522 13.0144L22.5045 24.5668C23.7076 25.7699 24.3836 27.4018 24.3836 29.1033C24.3836 29.8731 24.2452 30.6287 23.9822 31.3368Z" fill="#2D91FE"/>
<defs>
<radialGradient id="paint0_radial_1_301" cx="0" cy="0" r="1" gradientUnits="userSpaceOnUse" gradientTransform="translate(24.6811 26.1619) rotate(-84.6107) scale(26.2781 164.553)">
<stop stop-color="#2DADFE"/>
<stop offset="1" stop-color="#2D91FE"/>
</radialGradient>
</defs>
</svg>
